<?xml version="1.0" encoding="UTF-8" standalone="no"?>
<!-- Generator: Adobe Illustrator 19.0.0, SVG Export Plug-In . SVG Version: 6.00 Build 0)  -->

<svg
   version="1.1"
   id="Layer_1"
   x="0px"
   y="0px"
   viewBox="0 0 16 16"
   xml:space="preserve"
   sodipodi:docname="sleep-light.svg"
   width="16"
   height="16"
   inkscape:version="1.1.2 (0a00cf5339, 2022-02-04, custom)"
   xmlns:inkscape="http://www.inkscape.org/namespaces/inkscape"
   xmlns:sodipodi="http://sodipodi.sourceforge.net/DTD/sodipodi-0.dtd"
   xmlns="http://www.w3.org/2000/svg"
   xmlns:svg="http://www.w3.org/2000/svg"><defs
   id="defs1008">
	

		
	</defs><sodipodi:namedview
   id="namedview1006"
   pagecolor="#ffffff"
   bordercolor="#666666"
   borderopacity="1.0"
   inkscape:pageshadow="2"
   inkscape:pageopacity="0.0"
   inkscape:pagecheckerboard="0"
   showgrid="false"
   inkscape:zoom="8.6311831"
   inkscape:cx="24.851749"
   inkscape:cy="25.89448"
   inkscape:window-width="1920"
   inkscape:window-height="1044"
   inkscape:window-x="0"
   inkscape:window-y="0"
   inkscape:window-maximized="1"
   inkscape:current-layer="Layer_1"
   showguides="false" />
<g
   id="g937"
   style="fill:#ececec;fill-opacity:1"
   transform="matrix(0.0859375,0,0,0.0859375,2,2)">
	<g
   id="g935"
   style="fill:#ececec;fill-opacity:1">
		
	</g>
</g>
<g
   id="g943"
   style="fill:#ececec;fill-opacity:1"
   transform="matrix(0.0859375,0,0,0.0859375,2,2)">
	<g
   id="g941"
   style="fill:#ececec;fill-opacity:1">
		
	</g>
</g>
<g
   id="g949"
   style="fill:#ececec;fill-opacity:1"
   transform="matrix(0.0859375,0,0,0.0859375,2,2)">
	<g
   id="g947"
   style="fill:#ececec;fill-opacity:1">
		
	</g>
</g>
<g
   id="g955"
   style="fill:#ececec;fill-opacity:1">
	<g
   id="g953"
   style="fill:#ececec;fill-opacity:1">
		
	</g>
</g>
<g
   id="g961"
   style="fill:#ececec;fill-opacity:1">
	<g
   id="g959"
   style="fill:#ececec;fill-opacity:1">
		
	</g>
</g>
<g
   id="g967"
   style="fill:#ececec;fill-opacity:1">
	<g
   id="g965"
   style="fill:#ececec;fill-opacity:1">
		
	</g>
</g>
<path
   id="path969"
   style="fill:#ececec;stroke-width:0.0234375"
   d="m 13.912133,6.9756174 h -0.89318 C 13.086404,7.3067423 13.121935,7.6493044 13.121935,8 c 0,2.824243 -2.297718,5.121961 -5.12196,5.121961 -2.8242432,0 -5.1219383,-2.297718 -5.1219383,-5.121961 0,-2.8242423 2.2977191,-5.1219611 5.1219611,-5.1219611 0.5981016,0 1.1724612,0.1034062 1.706508,0.2926879 H 10.634139 V 2.6101016 C 9.838484,2.2196563 8.9444612,2 8,2 4.6915628,2 2,4.6916094 2,8 c 0,3.30839 2.6915628,6 6,6 3.308437,0 6,-2.69161 6,-6 C 14,7.6508044 13.96968,7.308594 13.91214,6.9756174 Z M 11.512204,3.463414 v 0.8780393 h 0.842529 l -1.006615,1.0066641 0.310429,0.749437 h 1.902422 V 5.2195157 H 12.718437 L 13.725055,4.2128517 13.414626,3.463414 Z M 9.0243824,4.0487889 V 4.9268284 H 9.8669371 L 8.8603208,5.9334923 9.1707272,6.6829293 H 11.073172 V 5.8048674 H 10.230618 L 11.237259,4.7982268 10.926828,4.0487889 Z M 6.5365856,4.6342111 V 5.51225 H 7.3791404 L 6.3725,6.5188674 6.6829292,7.2683517 H 8.5853756 V 6.3903124 H 7.7428208 L 8.7494372,5.3836483 8.4390308,4.6342111 Z M 8,10.780484 c -0.3227808,0 -0.5853744,0.262595 -0.5853744,0.585375 0,0.322782 0.2625936,0.585374 0.5853744,0.585374 0.3226644,0 0.585258,-0.262545 0.5853756,-0.585374 0,-0.32278 -0.2625468,-0.585375 -0.5853756,-0.585375 z m 3.02318,-2.2950934 c -0.0049,0.00248 -0.505782,0.2463285 -0.974391,0.2463285 -0.4703906,0 -0.9703118,-0.2443365 -0.975305,-0.2467975 L 8.6817272,9.2707112 c 0.027684,0.013872 0.6858984,0.3390468 1.3670618,0.3390468 0.681164,0 1.339383,-0.3251724 1.367062,-0.3390468 z m -4.0975556,0 c -0.00492,0.00248 -0.5057808,0.2463285 -0.9743904,0.2463285 -0.4703904,0 -0.9703128,-0.2443365 -0.9753048,-0.2467975 l -0.391758,0.7857896 c 0.027684,0.013872 0.6858996,0.3390468 1.3670628,0.3390468 0.6811644,0 1.3393836,-0.3251724 1.3670628,-0.3390468 z" />
<g
   id="g975">
</g>
<g
   id="g977">
</g>
<g
   id="g979">
</g>
<g
   id="g981">
</g>
<g
   id="g983">
</g>
<g
   id="g985">
</g>
<g
   id="g987">
</g>
<g
   id="g989">
</g>
<g
   id="g991">
</g>
<g
   id="g993">
</g>
<g
   id="g995">
</g>
<g
   id="g997">
</g>
<g
   id="g999">
</g>
<g
   id="g1001">
</g>
<g
   id="g1003">
</g>
</svg>
